<?xml version="1.0" encoding="utf-8"?>
<?xml-stylesheet type="text/xsl" href="rss1.xsl"?>
<rss version="2.0" xmlns:atom="http://www.w3.org/2005/Atom" xmlns:content="http://purl.org/rss/1.0/modules/content/" xmlns:dc="http://purl.org/dc/elements/1.1/" xmlns:media="http://search.yahoo.com/mrss/">
<channel>
 <title>Getty</title>
 <link>http://www.gettyimg.com/</link>
 <atom:link href="http://www.gettyimg.com/" rel="self" type="application/rss+xml" />

 
                <item>
                <title><![CDATA[【Music Videos】No Mercy - Where Do You Go (Trip House Mix) (VJ-RoGeRs Video Edit) (1080p)]]></title>
                <link><![CDATA[https://sharemania.us/threads/no-mercy-where-do-you-go-trip-house-mix-vj-rogers-video-edit-1080p.246400/]]></link>
                <description><![CDATA[<article>
<blockquote class="messageText SelectQuoteContainer ugc baseHtml">
<img src="https://i.ibb.co/9VFcQbq/No-Mercy-Where-Do-You-Go-Trip-House-Mix-VJ-Ro-Ge-Rs-Video-Edit-mp4-thumbs-2024-06-07-14-33-36.jpg" class="bbCodeImage LbImage" alt="[​IMG]" data-url="https://i.ibb.co/9VFcQbq/No-Mercy-Where-Do-You-Go-Trip-House-Mix-VJ-Ro-Ge-Rs-Video-Edit-mp4-thumbs-2024-06-07-14-33-36.jpg" style=""> <br>
<br>
<div class="ToggleTriggerAnchor bbCodeSpoilerContainer">
<button type="button" class="button bbCodeSpoilerButton ToggleTrigger Tooltip JsOnly" data-target="> .SpoilerTarget"><span>Spoiler: <span class="SpoilerTitle">MediaInfo</span></span></button>
<div class="SpoilerTarget bbCodeSpoilerText">No Mercy - Where Do You Go (Trip House Mix) (VJ-RoGeRs Video Edit).mp4<br>
Format : MPEG-4<br>
Format profile : Base Media / Version 2<br>
Codec ID : mp42 (mp42/mp41)<br>
File size : 202 MiB<br>
Duration : 4 min 28 s<br>
Overall bit rate mode : Variable<br>
Overall bit rate : 6 319 kb/s<br>
Frame rate : 25.000 FPS<br>
Encoded date : 2023-02-06 01:02:53 UTC<br>
Tagged date : 2023-02-06 01:03:21 UTC<br>
TIM : 00:00:00:00<br>
TSC : 25<br>
TSZ : 1<br>
<br>
Video<br>
ID : 1<br>
Format : AVC<br>
Format/Info : Advanced Video Codec<br>
Format profile : Main@L4.1<br>
Format settings : CABAC / 3 Ref Frames<br>
Format settings, CABAC : Yes<br>
Format settings, Reference : 3 frames<br>
Codec ID : avc1<br>
Codec ID/Info : Advanced Video Coding<br>
Duration : 4 min 28 s<br>
Bit rate mode : Variable<br>
Bit rate : 5 998 kb/s<br>
Maximum bit rate : 8 000 kb/s<br>
Width : 1 920 pixels<br>
Height : 1 080 pixels<br>
Display aspect ratio : 16:9<br>
Frame rate mode : Constant<br>
Frame rate : 25.000 FPS<br>
Standard : PAL<br>
Color space : YUV<br>
Chroma subsampling : 4:2:0<br>
Bit depth : 8 bits<br>
Scan type : Progressive<br>
Bits/(Pixel*Frame) : 0.116<br>
Stream size : 192 MiB (95%)<br>
Language : English<br>
Encoded date : 2023-02-06 01:02:53 UTC<br>
Tagged date : 2023-02-06 01:02:53 UTC<br>
Color range : Limited<br>
Codec configuration box : avcC<br>
<br>
Audio<br>
ID : 2<br>
Format : AAC LC<br>
Format/Info : Advanced Audio Codec Low Complexity<br>
Codec ID : mp4a-40-2<br>
Duration : 4 min 28 s<br>
Source duration : 4 min 28 s<br>
Bit rate mode : Variable<br>
Bit rate : 317 kb/s<br>
Maximum bit rate : 424 kb/s<br>
Channel(s) : 2 channels<br>
Channel layout : L R<br>
Sampling rate : 48.0 kHz<br>
Frame rate : 46.875 FPS (1024 SPF)<br>
Compression mode : Lossy<br>
Stream size : 10.1 MiB (5%)<br>
Source stream size : 10.1 MiB (5%)<br>
Language : English<br>
Encoded date : 2023-02-06 01:02:53 UTC<br>
Tagged date : 2023-02-06 01:02:53 UTC</div>
</div><br>
<div class="bbCodeBlock bbCodeVfcHH HiddenContent">
<div class="attribution type">Hidden Content:</div>
<blockquote>You must reply before you can see the hidden data contained here.</blockquote>
</div>
<div class="messageTextEndMarker">&nbsp;</div>
</blockquote>
</article>]]></description>
                <author><![CDATA[DJ-RoGeRs-BS]]></author>
                </item>

                </channel></rss>